<svg xmlns="http://www.w3.org/2000/svg" viewBox="0 0 24 24" role="img" aria-label="LINE icon">
  <rect width="24" height="24" rx="5" fill="#06C755"/>
  <path fill="#FFFFFF" d="M19.365 9.793c0-4.73-4.74-8.577-10.566-8.577-5.826 0-10.565 3.846-10.565 8.577 0 4.24 3.76 7.83 8.84 8.5.344.074.812.226.93.519.106.267.07.684.033.954 0 0-.123.744-.15.903-.046.267-.212 1.044.915.57s6.09-3.589 8.31-6.14c1.534-1.683 2.255-3.39 2.255-5.307zM5.857 12.27h-2.1a.57.57 0 0 1-.57-.568V7.598a.57.57 0 1 1 1.14 0v3.533h1.53a.57.57 0 1 1 0 1.139zm2.227-.569a.57.57 0 1 1-1.14 0V7.598a.57.57 0 1 1 1.14 0zm4.537 0a.57.57 0 0 1-.57.57.57.57 0 0 1-.457-.231L9.384 9.03V11.7a.57.57 0 0 1-1.139 0V7.598a.57.57 0 0 1 .569-.57c.175 0 .339.082.447.22l2.221 3.028v-2.68a.57.57 0 1 1 1.14 0zm3.585-2.963h-1.53v.93h1.53a.57.57 0 1 1 0 1.14h-1.53v.93h1.53a.57.57 0 1 1 0 1.14h-2.1a.57.57 0 0 1-.57-.57V7.598a.57.57 0 0 1 .57-.57h2.1a.57.57 0 1 1 0 1.14z"/>
</svg>
